<svg width="165" height="44" viewBox="0 0 165 44" fill="none" xmlns="http://www.w3.org/2000/svg">
<path fill-rule="evenodd" clip-rule="evenodd" d="M12.835 31.165C5.53 29.813 0 23.41 0 15.715C0 7.034 7.036 0 15.714 0C23.41 0 29.813 5.531 31.165 12.835C30.2151 12.6591 29.2511 12.5708 28.285 12.571C19.607 12.571 12.571 19.607 12.571 28.286C12.571 29.269 12.661 30.231 12.835 31.165Z" fill="black"/>
<path opacity="0.6" fill-rule="evenodd" clip-rule="evenodd" d="M15.714 31.428C24.394 31.428 31.429 24.393 31.429 15.714C31.429 14.731 31.339 13.768 31.165 12.834C38.47 14.188 44 20.59 44 28.287C44 36.964 36.965 44 28.286 44C20.591 44 14.187 38.469 12.835 31.165C13.7849 31.3409 14.7489 31.4293 15.715 31.429L15.714 31.428Z" fill="black"/>
<path d="M67.55 32.24C72.92 32.24 76.79 29.21 77.18 24.71H72.68C72.32 26.87 70.25 28.34 67.55 28.34C64.16 28.34 61.55 26 61.55 21.5C61.55 17 64.16 14.63 67.55 14.63C70.19 14.63 72.26 16.1 72.56 18.29H77.27C76.7 13.76 72.83 10.76 67.55 10.76C61.94 10.76 57.02 14.42 57.02 21.5C57.02 28.58 61.85 32.24 67.55 32.24ZM85.531 16.64C81.391 16.64 78.931 19.07 78.751 22.1H82.471C82.531 20.84 83.461 19.7 85.291 19.7C87.001 19.7 87.991 20.57 87.991 21.83C87.991 22.46 87.601 22.94 86.851 22.94H84.301C81.001 22.94 78.781 24.74 78.781 27.71C78.781 30.29 80.791 32.24 83.731 32.24C85.801 32.24 87.481 31.31 87.991 29.9V32H92.131V22.28C92.131 18.86 89.341 16.64 85.531 16.64ZM84.781 29.21C83.611 29.21 82.771 28.52 82.771 27.53C82.771 26.36 83.671 25.58 84.931 25.58H87.991V25.79C87.991 27.71 86.821 29.21 84.781 29.21ZM94.934 38.12H99.104V30.65C99.914 31.67 101.384 32.24 103.094 32.24C107.444 32.24 110.384 29.15 110.384 24.44C110.384 19.73 107.684 16.64 103.454 16.64C101.504 16.64 100.004 17.36 99.104 18.53V16.88H94.934V38.12ZM102.584 28.64C100.334 28.64 98.864 26.96 98.864 24.44C98.864 21.89 100.334 20.21 102.584 20.21C104.774 20.21 106.274 21.89 106.274 24.44C106.274 26.96 104.774 28.64 102.584 28.64ZM117.726 32.24C121.266 32.24 123.606 30.35 123.606 27.47C123.606 20.63 115.326 24.14 115.326 21.05C115.326 20.09 116.136 19.58 117.306 19.58C118.446 19.58 119.616 20.27 119.796 21.56H123.426C123.276 18.59 120.816 16.64 117.186 16.64C114.096 16.64 111.786 18.53 111.786 21.2C111.786 27.56 119.916 24.53 119.916 27.62C119.916 28.46 119.016 29.09 117.726 29.09C116.166 29.09 115.116 28.25 114.966 26.9H111.366C111.516 30.17 114.036 32.24 117.726 32.24ZM140.076 16.88H135.876V25.16C135.876 27.08 134.586 28.52 132.756 28.52C131.046 28.52 129.846 27.2 129.846 25.37V16.88H125.676V26.3C125.676 29.75 127.896 32.24 131.286 32.24C133.356 32.24 135.036 31.34 135.876 29.9V32H140.076V16.88ZM143.077 32H147.247V10.31H143.077V32ZM160.352 26.87C160.022 28.16 158.912 28.82 157.232 28.82C155.132 28.82 153.782 27.5 153.482 25.37H164.342C164.372 25.04 164.402 24.59 164.402 24.02C164.402 20.57 162.272 16.64 156.932 16.64C151.802 16.64 149.462 20.57 149.462 24.41C149.462 28.22 152.102 32.24 157.232 32.24C160.952 32.24 163.832 30.14 164.432 26.87H160.352ZM156.932 19.7C158.942 19.7 160.112 21.05 160.232 22.73H153.542C153.902 20.63 155.042 19.7 156.932 19.7Z" fill="black"/>
</svg>
