<svg width="170" height="44" viewBox="0 0 170 44" fill="none" xmlns="http://www.w3.org/2000/svg">
<path fill-rule="evenodd" clip-rule="evenodd" d="M22 44C34.15 44 44 34.15 44 22C44 9.85 34.15 0 22 0C9.85 0 0 9.85 0 22C0 34.15 9.85 44 22 44ZM28.863 10.248C29.197 9.062 28.046 8.36 26.994 9.109L12.312 19.57C11.172 20.382 11.352 22.001 12.582 22.001H16.448V21.971H23.983L17.843 24.137L15.137 33.753C14.803 34.939 15.954 35.641 17.006 34.892L31.688 24.432C32.828 23.62 32.648 22.001 31.418 22.001H25.555L28.863 10.248Z" fill="black"/>
<path d="M55.3799 31.91V28.43H58.1399V14.39H55.3799V10.91H66.1799C67.4599 10.91 68.5699 11.13 69.5099 11.57C70.4699 11.99 71.2099 12.6 71.7299 13.4C72.2699 14.18 72.5399 15.12 72.5399 16.22V16.52C72.5399 17.48 72.3599 18.27 71.9999 18.89C71.6399 19.49 71.2099 19.96 70.7099 20.3C70.2299 20.62 69.7699 20.85 69.3299 20.99V21.53C69.7699 21.65 70.2499 21.88 70.7699 22.22C71.2899 22.54 71.7299 23.01 72.0899 23.63C72.4699 24.25 72.6599 25.06 72.6599 26.06V26.36C72.6599 27.52 72.3899 28.52 71.8499 29.36C71.3099 30.18 70.5599 30.81 69.5999 31.25C68.6599 31.69 67.5599 31.91 66.2999 31.91H55.3799ZM62.0999 28.31H65.8199C66.6799 28.31 67.3699 28.1 67.8899 27.68C68.4299 27.26 68.6999 26.66 68.6999 25.88V25.58C68.6999 24.8 68.4399 24.2 67.9199 23.78C67.3999 23.36 66.6999 23.15 65.8199 23.15H62.0999V28.31ZM62.0999 19.55H65.7599C66.5799 19.55 67.2499 19.34 67.7699 18.92C68.3099 18.5 68.5799 17.92 68.5799 17.18V16.88C68.5799 16.12 68.3199 15.54 67.7999 15.14C67.2799 14.72 66.5999 14.51 65.7599 14.51H62.0999V19.55ZM81.6019 32.33C80.1219 32.33 78.7919 32.03 77.6119 31.43C76.4499 30.8468 75.4811 29.9405 74.8219 28.82C74.1419 27.68 73.8019 26.31 73.8019 24.71V24.23C73.8019 22.63 74.1419 21.26 74.8219 20.12C75.4811 18.9995 76.4499 18.0932 77.6119 17.51C78.7919 16.91 80.1219 16.61 81.6019 16.61C83.0819 16.61 84.4119 16.91 85.5919 17.51C86.7538 18.0932 87.7226 18.9995 88.3819 20.12C89.0619 21.26 89.4019 22.63 89.4019 24.23V24.71C89.4019 26.31 89.0619 27.68 88.3819 28.82C87.7226 29.9405 86.7538 30.8468 85.5919 31.43C84.4119 32.03 83.0819 32.33 81.6019 32.33ZM81.6019 28.97C82.7619 28.97 83.7219 28.6 84.4819 27.86C85.2419 27.1 85.6219 26.02 85.6219 24.62V24.32C85.6219 22.92 85.2419 21.85 84.4819 21.11C83.7419 20.35 82.7819 19.97 81.6019 19.97C80.4419 19.97 79.4819 20.35 78.7219 21.11C77.9619 21.85 77.5819 22.92 77.5819 24.32V24.62C77.5819 26.02 77.9619 27.1 78.7219 27.86C79.4819 28.6 80.4419 28.97 81.6019 28.97ZM91.3909 31.91V10.91H95.1709V31.91H91.3909ZM103.56 31.91C102.58 31.91 101.78 31.61 101.16 31.01C100.56 30.39 100.26 29.57 100.26 28.55V20.15H96.5399V17.03H100.26V12.41H104.04V17.03H108.12V20.15H104.04V27.89C104.04 28.49 104.32 28.79 104.88 28.79H107.76V31.91H103.56ZM116.221 32.33C114.281 32.33 112.691 31.91 111.451 31.07C110.211 30.23 109.461 29.03 109.201 27.47L112.681 26.57C112.821 27.27 113.051 27.82 113.371 28.22C113.711 28.62 114.121 28.91 114.601 29.09C115.101 29.25 115.641 29.33 116.221 29.33C117.101 29.33 117.751 29.18 118.171 28.88C118.591 28.56 118.801 28.17 118.801 27.71C118.801 27.25 118.601 26.9 118.201 26.66C117.801 26.4 117.161 26.19 116.281 26.03L115.441 25.88C114.401 25.68 113.451 25.41 112.591 25.07C111.731 24.71 111.041 24.22 110.521 23.6C110.001 22.98 109.741 22.18 109.741 21.2C109.741 19.72 110.281 18.59 111.361 17.81C112.441 17.01 113.861 16.61 115.621 16.61C117.281 16.61 118.661 16.98 119.761 17.72C120.861 18.46 121.581 19.43 121.921 20.63L118.411 21.71C118.251 20.95 117.921 20.41 117.421 20.09C116.941 19.77 116.341 19.61 115.621 19.61C114.901 19.61 114.351 19.74 113.971 20C113.591 20.24 113.401 20.58 113.401 21.02C113.401 21.5 113.601 21.86 114.001 22.1C114.401 22.32 114.941 22.49 115.621 22.61L116.461 22.76C117.581 22.96 118.591 23.23 119.491 23.57C120.411 23.89 121.131 24.36 121.651 24.98C122.191 25.58 122.461 26.4 122.461 27.44C122.461 29 121.891 30.21 120.751 31.07C119.631 31.91 118.121 32.33 116.221 32.33ZM124.274 31.91V10.91H128.054V18.86H128.594C128.754 18.54 129.004 18.22 129.344 17.9C129.684 17.58 130.134 17.32 130.694 17.12C131.274 16.9 132.004 16.79 132.884 16.79C134.044 16.79 135.054 17.06 135.914 17.6C136.794 18.12 137.474 18.85 137.954 19.79C138.434 20.71 138.674 21.79 138.674 23.03V31.91H134.894V23.33C134.894 22.21 134.614 21.37 134.054 20.81C133.514 20.25 132.734 19.97 131.714 19.97C130.554 19.97 129.654 20.36 129.014 21.14C128.374 21.9 128.054 22.97 128.054 24.35V31.91H124.274ZM141.26 31.91V17.03H145.04V31.91H141.26ZM143.15 15.29C142.47 15.29 141.89 15.07 141.41 14.63C140.95 14.19 140.72 13.61 140.72 12.89C140.72 12.17 140.95 11.59 141.41 11.15C141.89 10.71 142.47 10.49 143.15 10.49C143.85 10.49 144.43 10.71 144.89 11.15C145.35 11.59 145.58 12.17 145.58 12.89C145.58 13.61 145.35 14.19 144.89 14.63C144.43 15.07 143.85 15.29 143.15 15.29ZM150.189 31.91V20.15H146.409V17.03H150.189V14.27C150.189 13.25 150.489 12.44 151.089 11.84C151.709 11.22 152.509 10.91 153.489 10.91H157.389V14.03H154.809C154.249 14.03 153.969 14.33 153.969 14.93V17.03H157.869V20.15H153.969V31.91H150.189Z" fill="black"/>
<path d="M164.702 31.91C163.722 31.91 162.922 31.61 162.302 31.01C161.702 30.39 161.402 29.57 161.402 28.55V20.15H157.682V17.03H161.402V12.41H165.182V17.03H169.262V20.15H165.182V27.89C165.182 28.49 165.462 28.79 166.022 28.79H168.902V31.91H164.702Z" fill="black"/>
</svg>
